<svg width="270" height="208" viewBox="0 0 270 208" fill="none" xmlns="http://www.w3.org/2000/svg"><path d="M90.36 38.97a65.684 65.684 0 018.66-13.812c28.072-34.363 83.23-31.467 115.573-3.765 35.869 30.717 32.555 82.42 31.82 91.253-2.549 30.732-18.49 80.756-55.164 90.946-17.038 4.734-33.295-.588-47.478-10.464-11.201-7.799-25.971-7.071-36.662 2.071-4.044 3.458-8.552 6.382-13.56 8.452-11.334 4.685-21.424 3.43-25.794 2.829C33.688 201.812.41 162.998.723 126.707 1.08 85.064 45.617 53.122 90.36 38.97z" fill="#ECF3FE"/><path d="M216.475 93.916v81.876c0 .1-.005.199-.009.306 0 .047-.006.095-.01.142-.005.048-.005.09-.01.138 0 .018-.004.037-.004.056l-.015.091c-.004.071-.019.142-.028.213-.009.071-.024.138-.038.204a.65.65 0 01-.024.099.22.22 0 01-.014.077.856.856 0 01-.024.1c-.014.061-.033.123-.047.18a.079.079 0 01-.01.033c-.032.104-.061.209-.099.306l-.001.008-.003.007-.058.153c-.019.049-.037.09-.052.133a.166.166 0 00-.014.037c-.057.129-.114.262-.18.382a4.022 4.022 0 01-.066.129c-.024.043-.048.08-.071.123-.024.043-.043.08-.071.118-.048.077-.1.162-.153.237-.033.052-.067.095-.095.143-.08.104-.157.208-.241.306a5.2 5.2 0 01-.38.417c-.028.034-.061.062-.095.095a.578.578 0 01-.09.081c-.033.033-.071.066-.108.099-.01.01-.024.019-.034.028-.09.082-.185.153-.28.23a.105.105 0 00-.028.024c-.076.052-.153.109-.229.161-.029.019-.052.038-.077.052a1.608 1.608 0 01-.128.081.725.725 0 01-.104.061 5.28 5.28 0 01-.948.449c-.019.004-.033.014-.052.019l-.062.019a2.435 2.435 0 01-.204.066c-.118.038-.237.066-.355.095l-.185.042a.953.953 0 01-.119.02l-.146.028c-.01 0-.015 0-.019.004l-.119.015c-.019 0-.038.005-.057.005l-.104.014c-.019 0-.038.005-.062.005l-.218.014a6.503 6.503 0 01-.313.009H66.07c-.105 0-.209-.004-.313-.009l-.218-.014a2.195 2.195 0 01-.242-.029 1.067 1.067 0 01-.138-.019 3.563 3.563 0 01-.43-.085c-.12-.029-.238-.057-.356-.095-.071-.024-.138-.042-.204-.066a6.277 6.277 0 01-.917-.404l-.213-.127a5.913 5.913 0 01-2.375-2.766c-.038-.095-.076-.2-.114-.299-.037-.1-.066-.205-.099-.306a2.631 2.631 0 01-.076-.314c-.02-.104-.043-.194-.062-.293-.005-.015-.005-.034-.01-.048a6.074 6.074 0 01-.037-.289 4.484 4.484 0 01-.043-.692V93.916a5.84 5.84 0 012.17-4.548l.306-.23a5.803 5.803 0 013.38-1.076h144.542c.139-.001.278.005.417.019a.212.212 0 01.076.005c.132.009.27.023.398.042l.09.014c.113.02.23.043.337.071a5.726 5.726 0 011.621.638c.151.085.297.18.435.284.006-.004.006 0 .006 0l.305.23a3.049 3.049 0 01.261.223c.056.047.109.1.161.153.163.157.314.325.455.503.066.076.128.161.185.242.248.338.456.704.621 1.09.047.105.09.214.133.323 0 .005.004.01.004.015a5.272 5.272 0 01.228.801c.014.071.028.138.037.209.01.07.024.142.034.213.014.085.023.17.028.256.01.072.015.145.015.218.002.102.007.206.007.305z" fill="#DFE5EA"/><path d="M216.125 91.915H60.566a5.86 5.86 0 011.82-2.551l.306-.23 72.069-54.742a5.924 5.924 0 017.172 0l72.065 54.743c.005-.005.005 0 .005 0l.306.229a2.09 2.09 0 01.421.376c.163.157.315.326.455.503.066.077.128.162.185.242.248.338.456.704.621 1.09.047.105.09.214.133.323-.004.007.001.012.001.017z" fill="#59C9F3"/><path d="M79.985 43.642h114.792c2.779 0 5.444 1.104 7.41 3.071a10.49 10.49 0 013.069 7.415v123.259H69.506V54.13a10.491 10.491 0 016.468-9.69 10.473 10.473 0 014.01-.798z" fill="#fff"/><path d="M187.256 67.072H87.507a2.541 2.541 0 00-2.54 2.542v1.082a2.541 2.541 0 002.54 2.542h99.749a2.542 2.542 0 002.541-2.542v-1.082a2.542 2.542 0 00-2.541-2.542zM87.507 80.245h99.749a2.538 2.538 0 012.348 1.57c.128.308.193.638.194.972v1.081a2.54 2.54 0 01-.745 1.799 2.543 2.543 0 01-1.797.744H87.507a2.54 2.54 0 01-2.54-2.542v-1.082a2.543 2.543 0 012.54-2.542zm0 13.169h99.749a2.538 2.538 0 012.349 1.572c.127.31.193.64.193.974v1.082a2.542 2.542 0 01-2.541 2.542h-99.75a2.54 2.54 0 01-2.54-2.543v-1.08a2.543 2.543 0 012.54-2.543v-.004zm0 13.177h99.749a2.535 2.535 0 011.796.745 2.537 2.537 0 01.745 1.798v1.081a2.544 2.544 0 01-2.541 2.542H87.507a2.542 2.542 0 01-2.54-2.542v-1.081a2.545 2.545 0 012.54-2.543zm0 13.173h99.749a2.534 2.534 0 012.347 1.569c.128.309.194.64.194.973v1.079a2.54 2.54 0 01-2.541 2.542H87.507a2.538 2.538 0 01-2.54-2.542v-1.081a2.54 2.54 0 012.54-2.54z" fill="#E4ECF9"/><path d="M138.347 137.05v.005c-.237.257-.509.48-.806.664l-71.15 43.93h-.322a5.707 5.707 0 01-1.697-.251c-.076-.024-.153-.047-.223-.071a5.799 5.799 0 01-2.598-1.812 5.632 5.632 0 01-.488-.688c-.052-.081-.095-.162-.142-.242a2.381 2.381 0 01-.128-.257 5.827 5.827 0 01-.578-2.537V93.916a5.843 5.843 0 012.17-4.548l.306-.23a5.805 5.805 0 013.38-1.076h1.337l6.247 3.856 57.589 35.559 2.166 1.337 4.133 2.552c.298.183.569.407.806.663v.005a3.749 3.749 0 01-.002 5.016z" fill="#26ABDD"/><path d="M216.475 93.916v81.876c0 .1-.005.199-.009.306 0 .047-.006.095-.01.142-.005.048-.005.09-.009.138 0 .018-.005.037-.005.056l-.014.091c-.005.071-.02.142-.029.213a2.107 2.107 0 01-.038.204c0 .009-.004.024-.004.033a.396.396 0 01-.02.067.18.18 0 01-.014.076.582.582 0 01-.024.1 2.97 2.97 0 01-.056.213 3.222 3.222 0 01-.1.306v.008l-.004.007c-.019.052-.034.099-.058.153-.023.053-.032.085-.051.133a.239.239 0 00-.015.037c-.057.129-.114.262-.18.383-.019.038-.042.085-.066.128l-.071.123c-.024.043-.043.08-.071.119-.047.076-.1.161-.153.237-.033.052-.066.094-.095.142a6.81 6.81 0 01-.621.723c-.028.034-.061.062-.095.095a.578.578 0 01-.09.081c-.033.033-.071.066-.108.099-.01.01-.024.019-.034.029-.09.081-.185.152-.279.229a.096.096 0 00-.029.024c-.076.052-.153.109-.229.161-.028.019-.052.038-.076.052a1.827 1.827 0 01-.129.081.674.674 0 01-.104.061 5.333 5.333 0 01-.948.449c-.018.005-.035.012-.052.019l-.062.019a2.435 2.435 0 01-.204.066c-.118.038-.237.066-.355.095l-.185.043a.935.935 0 01-.118.019l-.147.028h-.018c-.043.005-.085.014-.123.019-.019 0-.039.005-.058.005l-.104.014c-.019 0-.038.005-.061.005l-.218.014a6.578 6.578 0 01-.313.009h-.322l-71.148-43.927a3.674 3.674 0 01-.801-.664v-.005a3.738 3.738 0 010-5.018v-.007c.234-.258.504-.481.801-.664l4.126-2.552 2.167-1.337 57.594-35.559 6.246-3.856h1.337c.139-.001.278.005.417.019a.214.214 0 01.076.004c.132.01.27.024.398.043l.09.014c.113.019.23.043.337.071.028.005.057.01.085.02a5.78 5.78 0 01.773.246c.17.067.336.144.497.23.091.042.18.09.266.142.151.085.297.18.435.284.006-.004.006 0 .006 0l.305.23a3.05 3.05 0 01.261.223c.056.047.109.1.161.153.163.157.314.325.455.503a5.525 5.525 0 01.806 1.332c.047.105.09.214.133.323 0 .004.004.01.004.014a5.272 5.272 0 01.228.802c.014.07.028.137.037.209.01.07.024.142.034.213.014.085.023.17.028.256.01.072.015.145.015.218.004.107.009.21.009.31z" fill="#26ABDD"/><path opacity=".29" d="M216.474 174.687v.852c0 3.376-2.622 6.117-5.854 6.117H66.069c-3.233 0-5.854-2.738-5.854-6.117v-.852l74.349-48.95a6.835 6.835 0 017.556 0l74.354 48.95z" fill="#474747"/><path d="M216.474 174.976v.816a5.86 5.86 0 01-5.854 5.857H66.069a5.853 5.853 0 01-5.854-5.857v-.816l74.349-46.895a7.085 7.085 0 017.556 0l74.354 46.895z" fill="#59C9F3"/><path d="M131.01 53.9H87.507a2.541 2.541 0 00-2.54 2.542v1.082a2.541 2.541 0 002.54 2.542h43.503a2.541 2.541 0 002.54-2.542v-1.082a2.54 2.54 0 00-2.54-2.542z" fill="#26ABDD"/><path d="M80.382 170.38h-.04a56.906 56.906 0 01-5.184-.445.97.97 0 01-.636-.368.958.958 0 01.514-1.511.96.96 0 01.373-.024c1.65.218 3.335.363 5.01.43a.962.962 0 01.921.978.96.96 0 01-.959.941v-.001zm5.112-.025a.96.96 0 01-.045-1.919 58.006 58.006 0 005.013-.458.956.956 0 011.054.827.958.958 0 01-.8 1.076 63.116 63.116 0 01-5.174.473l-.047.001zM70.25 169.03a.977.977 0 01-.215-.025 55.469 55.469 0 01-5.014-1.405.958.958 0 01-.608-1.214.96.96 0 011.213-.608c1.587.527 3.215.982 4.838 1.356a.96.96 0 01-.214 1.896zm25.379-.02a.954.954 0 01-.956-.858.96.96 0 01.755-1.04 67.265 67.265 0 004.89-1.246.947.947 0 011.034.308.952.952 0 01.211.714.975.975 0 01-.363.65.984.984 0 01-.339.17 69.85 69.85 0 01-5.03 1.281.926.926 0 01-.202.022v-.001zm9.815-2.882a.959.959 0 01-.335-1.859 74.028 74.028 0 004.671-1.929.967.967 0 011.052.174.958.958 0 01.242 1.039.973.973 0 01-.502.536 77.682 77.682 0 01-4.793 1.979.985.985 0 01-.331.061l-.004-.001zm-44.903-.306a.942.942 0 01-.377-.076 73.28 73.28 0 01-4.69-2.217.96.96 0 01.88-1.705 70.575 70.575 0 004.565 2.159.965.965 0 01.561 1.078.962.962 0 01-.943.765l.004-.004zm54.222-3.923a.964.964 0 01-.932-.724.956.956 0 01.474-1.082 60.573 60.573 0 003.815-2.24.958.958 0 011.317.297.96.96 0 01-.284 1.322 62.879 62.879 0 01-3.936 2.31.95.95 0 01-.454.119v-.002zm-63.315-.773a.95.95 0 01-.497-.14 75.461 75.461 0 01-4.339-2.841.96.96 0 011.107-1.569 73.197 73.197 0 004.227 2.769.96.96 0 01-.498 1.781zm-8.357-5.913a.953.953 0 01-.611-.219 62.173 62.173 0 01-3.707-3.31.964.964 0 01-.24-.244.962.962 0 01.599-1.552.963.963 0 01.644.128c1.549.347 3.115.609 4.693.784a.961.961 0 01-.211 1.912 46.1 46.1 0 01-1.784-.234c.402.349.81.695 1.223 1.037a.962.962 0 01-.611 1.701l.005-.003zm6.38-2.237a.96.96 0 01-.009-1.92 41.962 41.962 0 004.012-.23c.272-.029.593-.063.994-.111a.962.962 0 01.869 1.546.958.958 0 01-.64.36c-.407.049-.735.084-.974.11a42.874 42.874 0 01-4.238.246l-.014-.001zm10.162-1.186a.962.962 0 01-.776-1.527.958.958 0 01.58-.373 55.054 55.054 0 004.874-1.258.961.961 0 011.038.295.964.964 0 01-.135 1.365.96.96 0 01-.337.175c-1.62.499-3.318.938-5.043 1.3a1.02 1.02 0 01-.198.025l-.004-.002zm-25.222-1.358a.956.956 0 01-.318-.055 47.976 47.976 0 01-4.821-2 .958.958 0 01-.431-1.272.962.962 0 011.261-.459 45.54 45.54 0 004.628 1.919.963.963 0 01-.319 1.867zm34.993-1.682a.96.96 0 01-.382-1.843 38.622 38.622 0 004.453-2.256.947.947 0 01.735-.118.956.956 0 01.723.801.956.956 0 01-.477.967 40.316 40.316 0 01-4.676 2.371.976.976 0 01-.373.081l-.003-.003zm-33.609-.7a.96.96 0 01-.735-.342 44.337 44.337 0 01-3.127-4.193.959.959 0 111.605-1.052 42.502 42.502 0 002.994 4.012.96.96 0 01-.734 1.577l-.003-.002zm-10.592-2.034a.953.953 0 01-.503-.143 49.7 49.7 0 01-4.284-2.981.962.962 0 01.469-1.711.958.958 0 01.708.194 47.832 47.832 0 004.116 2.861.961.961 0 01-.506 1.776v.004zm52.948-2.523a.957.957 0 01-.926-1.208c.05-.19.158-.36.309-.487a25.22 25.22 0 003.45-3.508.958.958 0 011.702.498.962.962 0 01-.206.705 27.183 27.183 0 01-3.712 3.775.947.947 0 01-.62.225h.003zm-61.015-3.746a.959.959 0 01-.665-.268 48.375 48.375 0 01-3.56-3.818.958.958 0 01.822-1.571.961.961 0 01.65.34 46.58 46.58 0 003.418 3.665.963.963 0 01-.128 1.488.96.96 0 01-.537.164zm13.107-.262a.963.963 0 01-.871-.555 30.744 30.744 0 01-1.815-4.954.961.961 0 011.405-1.073c.22.125.38.332.449.575a28.644 28.644 0 001.7 4.642.959.959 0 01-.868 1.365zm54.232-3.939a.952.952 0 01-.815-.453.961.961 0 01-.044-.932 22.795 22.795 0 001.604-4.331l.069-.272a.96.96 0 111.861.466l-.076.29a24.658 24.658 0 01-1.745 4.697.962.962 0 01-.854.538v-.003zm-73.882-3.64a.95.95 0 01-.8-.431 45.69 45.69 0 01-2.632-4.511.96.96 0 011.709-.871 44.161 44.161 0 002.521 4.326.956.956 0 01.045.983.958.958 0 01-.844.507v-.003zm17.053-2.251a.961.961 0 01-.957-.898 25.812 25.812 0 01.208-5.304.967.967 0 01.37-.645.948.948 0 01.34-.166.948.948 0 01.736.105.965.965 0 01.454.979 23.881 23.881 0 00-.193 4.909.956.956 0 01-.534.923.95.95 0 01-.361.097h-.063zm59.302-3.962h-.043a.974.974 0 01-.666-.31.958.958 0 01-.25-.691 27.083 27.083 0 00-.25-4.928.961.961 0 011.532-.921.962.962 0 01.367.651 28.959 28.959 0 01.267 5.281.96.96 0 01-.957.919v-.001zm-80.988-2.89a.956.956 0 01-.9-.623 47.394 47.394 0 01-1.553-4.988.96.96 0 111.86-.468 45.344 45.344 0 001.487 4.785.959.959 0 01-.898 1.3l.004-.006zm23.097-3.222a.962.962 0 01-.857-.536.96.96 0 01-.048-.733 34.85 34.85 0 012.075-4.835.961.961 0 01.94-.538.959.959 0 01.761 1.424 32.953 32.953 0 00-1.96 4.566.958.958 0 01-.915.653l.004-.001zm56.481-3.976a.955.955 0 01-.912-.666 30.989 30.989 0 00-1.898-4.582.958.958 0 01.41-1.306.967.967 0 01.74-.057.97.97 0 01.558.489 32.821 32.821 0 012.016 4.868.956.956 0 01-.917 1.254h.003zm-82.084-2.71a.96.96 0 01-.948-.825 52.206 52.206 0 01-.468-5.195.961.961 0 011.609-.742.963.963 0 01.309.666 50.14 50.14 0 00.45 5.001.96.96 0 01-.952 1.095zm30.28-2.384a.96.96 0 01-.784-1.512 41.36 41.36 0 013.28-4.085.963.963 0 011.342-.045.96.96 0 01.075 1.34 39.739 39.739 0 00-3.128 3.894.95.95 0 01-.786.408zm47.164-3.985a.953.953 0 01-.775-.393 30.092 30.092 0 00-3.243-3.746.963.963 0 01.66-1.65.96.96 0 01.682.273 32.302 32.302 0 013.45 3.988.958.958 0 01-.272 1.386.967.967 0 01-.502.143v-.001zm-40.276-3.554a.958.958 0 01-.902-.629.96.96 0 01.28-1.063 38.527 38.527 0 014.219-3.117.961.961 0 011.483.636.962.962 0 01-.453.984 36.674 36.674 0 00-4.008 2.961.958.958 0 01-.62.228zm-37.58-.289h-.055a.961.961 0 01-.903-1.014 52.04 52.04 0 01.557-5.186.96.96 0 111.894.305A50.06 50.06 0 004 101.782a.96.96 0 01-.958.897v.004zm70.555-3.263a.952.952 0 01-.535-.166 24.952 24.952 0 00-4.318-2.353.96.96 0 01.743-1.77 26.89 26.89 0 014.652 2.534.96.96 0 01-.54 1.759l-.002-.004zm-24.358-1.903a.96.96 0 01-.387-1.835 30.144 30.144 0 014.993-1.703.962.962 0 011.185.7.96.96 0 01-.732 1.166 28.34 28.34 0 00-4.674 1.594.944.944 0 01-.385.074v.004zm14.982-2.003a.952.952 0 01-.173-.016 22.343 22.343 0 00-4.885-.344.959.959 0 01-.743-1.61.959.959 0 01.666-.308c.319-.013.66-.007.958-.019 1.457 0 2.912.131 4.346.392a.96.96 0 01-.17 1.905h.001zm-59.53-2.92a.959.959 0 01-.925-1.222 48.748 48.748 0 011.68-4.94.96.96 0 111.782.717 46.457 46.457 0 00-1.615 4.74.96.96 0 01-.922.702v.004zm3.801-9.48a.96.96 0 01-.846-1.41 51.02 51.02 0 012.68-4.477.96.96 0 111.593 1.07A48.876 48.876 0 009.342 82.6a.958.958 0 01-.85.511v.002zm5.686-8.494a.96.96 0 01-.739-1.571 54.12 54.12 0 013.509-3.853.96.96 0 011.355 1.36 52.051 52.051 0 00-3.384 3.716.957.957 0 01-.74.346v.002zm7.237-7.224a.958.958 0 01-.925-1.213.96.96 0 01.314-.487 57.87 57.87 0 014.16-3.13.959.959 0 011.346 1.318.961.961 0 01-.262.268 55.285 55.285 0 00-4.022 3.024.952.952 0 01-.61.218v.002zm8.441-5.776a.96.96 0 01-.47-1.797 60.962 60.962 0 014.644-2.346.958.958 0 011.293 1.214.958.958 0 01-.503.535 57.644 57.644 0 00-4.495 2.272.953.953 0 01-.469.12v.002zm9.322-4.217a.959.959 0 01-.32-1.865 64.327 64.327 0 014.967-1.529.96.96 0 11.485 1.857 60.57 60.57 0 00-4.813 1.479.978.978 0 01-.322.059l.003-.001z" fill="#F4B545"/><path opacity=".1" d="M87.021 30.894L14.64 40.558l17.548 13.32.275 24.515L47.585 65.54l8.497 6.411 30.94-41.057z" fill="#232323"/><path d="M34.04 76.906l-.401-35.81 54.96-11.689-54.56 47.5z" fill="#33C3CC"/><path d="M33.884 52.481c.279-.14 54.716-23.074 54.716-23.074l-72.383 9.664 17.667 13.41z" fill="#20D1DC"/><path d="M39.883 57.052L34.04 76.906l25.065-21.304-19.22 1.45z" fill="#10B0BA"/><path d="M39.885 57.052L57.66 70.464 88.6 29.407 39.885 57.052z" fill="#20D1DC"/><path opacity=".1" d="M230.121 96.893a1.682 1.682 0 00-1.781-1.57l-64.681 4.115a1.68 1.68 0 00-1.568 1.782l1.67 26.294a1.683 1.683 0 001.781 1.57l64.681-4.115a1.68 1.68 0 001.568-1.782l-1.67-26.294z" fill="#232323"/><path d="M231.86 122.55l-64.677 4.114a1.68 1.68 0 01-1.781-1.57l-1.67-26.291a1.68 1.68 0 011.568-1.783l64.681-4.114a1.679 1.679 0 011.781 1.57l1.67 26.292a1.682 1.682 0 01-1.572 1.782z" fill="#fff"/><path d="M225.02 100.811l-28.226 1.796a1.334 1.334 0 01-1.408-1.242l-.005-.065a1.335 1.335 0 011.24-1.41l28.226-1.796a1.33 1.33 0 011.408 1.241l.005.067a1.33 1.33 0 01-1.24 1.409z" fill="#26ABDD"/><path d="M225.392 106.737l-28.225 1.795a1.33 1.33 0 01-1.41-1.241l-.005-.066a1.328 1.328 0 011.24-1.409l28.226-1.796a1.33 1.33 0 011.409 1.241v.066a1.334 1.334 0 01-1.235 1.41zm.377 5.925l-28.225 1.796a1.332 1.332 0 01-1.409-1.241l-.004-.066a1.332 1.332 0 011.24-1.41l28.226-1.795a1.33 1.33 0 011.408 1.241l.004.066a1.331 1.331 0 01-1.24 1.409zm.376 5.927l-28.226 1.795a1.334 1.334 0 01-1.408-1.241l-.005-.067a1.334 1.334 0 011.241-1.409l28.225-1.795a1.327 1.327 0 011.408 1.244l.005.067a1.334 1.334 0 01-1.24 1.406zm-37.49 1.202c4.865-4.868 4.865-12.761 0-17.629-4.865-4.869-12.753-4.869-17.618 0-4.865 4.868-4.865 12.761 0 17.629 4.865 4.869 12.753 4.869 17.618 0z" fill="#ECF3FE"/><path d="M185.366 106.336l.423 6.67a2.668 2.668 0 01-1.484 2.561 2.661 2.661 0 01-1.005.268l-6.265.398a2.666 2.666 0 01-2.827-2.492l-.423-6.67c-.377-5.924 5.431-6.025 5.431-6.025s1.503-.165 3.025.459c1.363.558 2.741 1.751 3.07 4.264.022.184.04.373.055.567z" fill="#302F2F"/><path d="M181.894 114.941l.125 1.962c.053.831-.708 1.563-1.693 1.626-.985.063-1.834-.567-1.885-1.398l-.125-1.962a1.364 1.364 0 01.31-.938 1.763 1.763 0 01.557-.458 2.076 2.076 0 011.675-.107c.151.057.293.135.424.23l.019.013c.059.044.115.092.167.143.248.233.4.55.426.889z" fill="#F4B698"/><path opacity=".28" d="M184.526 107.907l.181 2.856a4.704 4.704 0 01-.676 2.728 4.7 4.7 0 01-2.112 1.852l.047.753c-.5.221-1.034.352-1.579.386l-.382.025a4.622 4.622 0 01-1.616-.183l-.048-.753a4.69 4.69 0 01-3.346-4.19l-.181-2.856a4.697 4.697 0 014.369-4.944l.382-.024a4.65 4.65 0 012.966.834 4.673 4.673 0 011.995 3.516z" fill="#000"/><path d="M184.48 107.176l.229 3.589a4.656 4.656 0 01-1.024 3.221 4.617 4.617 0 01-3.337 1.738l-.382.024a4.615 4.615 0 01-1.615-.182 4.689 4.689 0 01-3.347-4.19l-.229-3.569c0-.049-.005-.099-.006-.149a4.668 4.668 0 011.413-3.517 4.64 4.64 0 012.959-1.322l.382-.024a4.634 4.634 0 012.878.777 4.72 4.72 0 011.499 1.617c.342.61.541 1.289.58 1.987z" fill="#F4B698"/><path d="M186.47 108.946a1.874 1.874 0 01-1.75 1.988l-.238-3.74a1.865 1.865 0 011.988 1.752z" fill="#F4B698"/><path d="M185.758 108.991a1.159 1.159 0 01-1.083 1.232l-.148-2.316a1.159 1.159 0 011.231 1.084z" fill="#E29586"/><path d="M182.763 116.087l-1.093 4.862c-.781.145-1.576.196-2.368.153l-1.7-4.685.987-.063.037.034 1.661 1.513 1.459-1.712.033-.038.984-.064z" fill="#565656"/><path d="M174.768 107.813l.238 3.74a1.868 1.868 0 01-1.275-.396 1.875 1.875 0 01.707-3.293l.047-.01c.093-.021.188-.035.283-.041z" fill="#F4B698"/><path d="M173.731 109.756a1.16 1.16 0 001.231 1.085l-.148-2.316a1.159 1.159 0 00-1.083 1.231z" fill="#E29586"/><path d="M184.271 120.083a9.523 9.523 0 01-1.223.508l-.027-.428 1.25-.08z" fill="#565656"/><path opacity=".2" d="M180.285 117.9l1.451.896 1.027-2.71-2.478 1.814z" fill="#363636"/><path d="M182.763 116.086l-1.057 2.62-1.421-.806 1.491-1.751.195-.227.792.164z" fill="#EEE"/><path opacity=".2" d="M177.6 116.415l1.347 2.559 1.338-1.074-2.685-1.485z" fill="#363636"/><path d="M180.285 117.9l-1.306.98-1.379-2.465.765-.264.222.201 1.698 1.548z" fill="#EEE"/><path d="M185.355 106.213c-3.465.472-3.334-2.701-3.069-4.264 1.362.558 2.741 1.751 3.069 4.264z" fill="#302F2F"/><path d="M183.403 103.583c-.107.2-1.17 2.438-3.33 2.575-2.16.138-5.507 1.654-5.476 3.813.031 2.159-3.123-6.401 3.395-7.499 6.517-1.098 5.411 1.111 5.411 1.111z" fill="#302F2F"/><path opacity=".1" d="M235.92 91.846l-6.207-25.603a1.684 1.684 0 00-2.027-1.235l-62.984 15.291a1.679 1.679 0 00-1.235 2.028l6.208 25.602a1.685 1.685 0 002.026 1.236l62.984-15.291a1.684 1.684 0 001.235-2.028z" fill="#232323"/><path d="M229.105 62.682l-62.984 15.295a1.678 1.678 0 00-1.235 2.027l6.208 25.603a1.678 1.678 0 002.027 1.235l62.984-15.294a1.679 1.679 0 001.234-2.028l-6.208-25.602a1.678 1.678 0 00-2.026-1.236z" fill="#F4B545"/><path d="M191.488 97.959c4.82-4.824 4.82-12.644 0-17.468-4.82-4.823-12.635-4.823-17.455 0-4.821 4.824-4.821 12.644 0 17.468 4.82 4.823 12.635 4.823 17.455 0z" fill="#FFDCA4"/><path d="M185.242 100.111a1.971 1.971 0 01-.203.041h-.004a10.512 10.512 0 01-6.002-.495 5.815 5.815 0 012.781-3.746h.004a5.72 5.72 0 011.462-.578l2.032-.493a5.79 5.79 0 01.749-.128h.004c.269-.03.541-.04.812-.027a5.775 5.775 0 014.104 1.956 10.58 10.58 0 01-4.945 3.257c-.09.03-.18.055-.275.077a.215.215 0 01-.042.014.178.178 0 01-.059.014.124.124 0 01-.051.013c-.068.024-.14.041-.213.059l-.051.013-.062.014-.018.005-.023.004z" fill="#F4B545"/><path d="M177.037 88.445s-2.305-6.723 1.42-7.77c3.725-1.048 5.028-2.37 6.005-2.275.976.096 3.18 6.18 3.237 7.456.057 1.276-10.662 2.589-10.662 2.589z" fill="#E09F36"/><path d="M185.819 93.7l.466 1.924c.198.816-.43 1.675-1.395 1.912-.966.236-1.917-.242-2.115-1.057l-.466-1.924a1.369 1.369 0 01.143-.985 1.726 1.726 0 01.472-.551 2.092 2.092 0 011.643-.4c.159.03.313.082.459.153l.022.01c.066.033.129.071.19.113.287.187.494.474.581.806z" fill="#F4CB95"/><path d="M187.201 86.261l.679 2.802a4.727 4.727 0 01-1.966 5.031l.179.74a4.688 4.688 0 01-1.499.659l-.375.09a4.642 4.642 0 01-1.635.102l-.18-.738a4.727 4.727 0 01-4.049-3.57l-.68-2.802a4.726 4.726 0 013.471-5.67l.376-.09a4.678 4.678 0 013.087.305 4.707 4.707 0 012.592 3.141z" fill="#D8A471"/><path d="M187.025 85.545l.854 3.517c.207.85.172 1.741-.102 2.572a4.468 4.468 0 01-.144.371 4.686 4.686 0 01-3.22 2.746l-.373.09a4.716 4.716 0 01-5.686-3.467l-.885-3.652a4.705 4.705 0 011.177-4.2 4.663 4.663 0 012.32-1.358l.373-.091a4.573 4.573 0 012.116-.016 4.404 4.404 0 01.875.281 4.707 4.707 0 012.695 3.207z" fill="#F4CB95"/><path d="M189.308 86.953a1.89 1.89 0 01-1.389 2.279l-.89-3.67c.246-.06.502-.07.752-.03h.004a1.89 1.89 0 011.523 1.42z" fill="#EDC28E"/><path d="M188.61 87.122a1.17 1.17 0 01-.86 1.41l-.551-2.27a1.167 1.167 0 011.411.86z" fill="#D8A471"/><path d="M177.503 87.876l.889 3.67a1.885 1.885 0 01-2.198-2.53 1.884 1.884 0 01.99-1.03l.044-.018c.089-.038.181-.069.275-.092z" fill="#EDC28E"/><path d="M176.814 89.986a1.168 1.168 0 001.411.86l-.551-2.271a1.17 1.17 0 00-.86 1.411z" fill="#D8A471"/><path d="M187.025 85.545l.854 3.517c.207.85.172 1.741-.102 2.572a4.496 4.496 0 01-.144.371c-.699-6.858-2.045-7.55-3.618-7.155-1.691.42-2.581-1.57-2.581-1.57l2.423-1.118a4.707 4.707 0 013.168 3.383z" fill="#E5B67F"/><path d="M186.6 96.92l.629.656-1.194 2.323a2.895 2.895 0 01-.274.076.224.224 0 01-.043.015.19.19 0 01-.058.014l.561-3.564v-.008l.093-.588v-.004l.009-.06-.23-.949 1.376 1.413-.822.64-.047.037z" fill="#CC8E2B"/><path d="M185.342 100.091l.052-.013c.076-.018.145-.035.213-.059a.114.114 0 00.051-.013.167.167 0 00.058-.014l.138-.42.726-2.26-.142-.587.324-.511-.405-.745c-.018.066-.04.13-.065.193l-.005.01v.007c-.125.347-.434 1.06-1.001 1.557-.126.11-.264.205-.41.285a2.421 2.421 0 01-.675-.122c-.656-.207-1.18-.645-1.417-.877l-.006-.006c-.098-.089-.146-.142-.146-.142l-.019.847.522.305.143.588 1.446 1.442.547.548h.004l.067-.013z" fill="#fff"/><path d="M186.646 96.886l.584.689-1.469 2.4a.209.209 0 01-.042.015.197.197 0 01-.058.014.133.133 0 01-.052.013l.542-3.421v-.004l.144-.917v-.008l.006-.01-.229-.948 1.402 1.534-.897.554.069.09z" fill="#E09F36"/><path d="M185.242 100.11a1.767 1.767 0 01-.202.042h-.004l-2.208-1.509.259-.87-.055-.01-1.024-.192.574-1.887.201.83.029.12.005.006.018.026.006.007.363.495 2.139 2.918-.062.015-.018.004-.021.005z" fill="#CC8E2B"/><path d="M185.242 100.111l-2.414-1.466.204-.88.026-.112-1.05-.08.545-2.008.029.121.201.829.005.006.554.755.001.004 2.049 2.798-.051.013-.062.014-.018.005-.019.001zm-1.221-18.687s-2.456-.135-2.903-.028c-.447.108-1.002.3-1.828.725-.827.425-1.919 1.7-1.919 1.7l-.134.535c-.104.177-.206.375-.201.424.004.048.007.196.01.334l-.11.44c.026-.017.089-.055.165-.107l.208.346a4.086 4.086 0 01.983-1.394c.913-.601 2.236-1.019 3.361-.55 2.041.85 5.088-.68 5.088-.68l-2.72-1.745z" fill="#E09F36"/><path d="M225.527 71.077l-27.485 6.673a1.33 1.33 0 01-1.605-.977l-.015-.065a1.33 1.33 0 01.976-1.605l27.485-6.673a1.33 1.33 0 011.605.977l.016.065a1.335 1.335 0 01-.977 1.605z" fill="#E29D2D"/><path d="M226.285 74.194l-27.484 6.674a1.328 1.328 0 00-.976 1.604l.015.065c.173.712.891 1.15 1.603.977l27.484-6.674a1.328 1.328 0 00.977-1.604l-.016-.064a1.327 1.327 0 00-1.603-.978zm1.399 5.771L200.2 86.639a1.328 1.328 0 00-.977 1.604l.016.064c.173.713.89 1.15 1.602.978l27.484-6.674a1.328 1.328 0 00.977-1.604l-.015-.065a1.328 1.328 0 00-1.603-.977zm1.4 5.769L201.6 92.408a1.328 1.328 0 00-.976 1.604l.015.065c.173.712.891 1.15 1.603.977l27.484-6.674a1.33 1.33 0 00.977-1.604l-.016-.064a1.327 1.327 0 00-1.603-.978z" fill="#FFDCA4"/><path d="M185.464 172.846c-.458 0-.914-.009-1.367-.028a.959.959 0 01-.596-1.654.955.955 0 01.672-.264c1.655.066 3.313.005 4.959-.185a.954.954 0 011.061.844.96.96 0 01-.844 1.062 34.073 34.073 0 01-3.885.225zm-6.399-.66a.954.954 0 01-.199-.021 31.582 31.582 0 01-5.043-1.519.962.962 0 01-.028-1.774.953.953 0 01.734-.012 29.32 29.32 0 004.737 1.426.961.961 0 01-.197 1.9h-.004zm15.199-.505a.958.958 0 01-.242-1.888 38.237 38.237 0 004.732-1.582.953.953 0 011.06.203.954.954 0 01.281.69.966.966 0 01-.618.886 40.293 40.293 0 01-4.966 1.66.972.972 0 01-.247.031zm-24.673-3.227a.949.949 0 01-.489-.136 36.714 36.714 0 01-4.304-3.01.961.961 0 011.208-1.493 34.89 34.89 0 004.077 2.854.962.962 0 01-.492 1.785zm34.138-.606a.963.963 0 01-.882-1.339.966.966 0 01.416-.461 43.844 43.844 0 004.23-2.675.951.951 0 01.72-.177.95.95 0 01.787.735.962.962 0 01-.391 1.003 45.52 45.52 0 01-4.415 2.793.946.946 0 01-.465.121zm-42.087-5.796a.95.95 0 01-.692-.295 47.943 47.943 0 01-3.401-3.968.96.96 0 01.885-1.537.957.957 0 01.636.367 46.049 46.049 0 003.264 3.808c.13.136.218.307.252.492a.965.965 0 01-.415.974.958.958 0 01-.529.159zm50.395-.143a.957.957 0 01-.933-1.183.961.961 0 01.291-.49 42.953 42.953 0 003.514-3.562.955.955 0 011.04-.295.955.955 0 01.56.492.964.964 0 01-.158 1.07 44.94 44.94 0 01-3.673 3.721.956.956 0 01-.641.247zm3.298-5.703a.965.965 0 01-.657-.268.964.964 0 01-.063-1.318.96.96 0 01.628-.33c.928-.091 1.85-.238 2.762-.44a.964.964 0 01-.041-1.129 34.156 34.156 0 002.478-4.314.96.96 0 111.73.829 35.619 35.619 0 01-2.337 4.135c.077-.021.145-.044.218-.067a.96.96 0 01.573 1.835 25.943 25.943 0 01-5.195 1.063c-.033.002-.065.004-.096.004zm-5.102-.077c-.041 0-.082-.003-.123-.008a27.29 27.29 0 01-5.161-1.207.963.963 0 01-.604-1.216.962.962 0 011.216-.605 25.37 25.37 0 004.795 1.124.962.962 0 01.529 1.647.961.961 0 01-.65.264l-.002.001zm-54.838-2.18a.949.949 0 01-.815-.452 54.411 54.411 0 01-2.548-4.554.962.962 0 011.165-1.338c.241.081.44.254.553.482a52.323 52.323 0 002.458 4.394.965.965 0 01-.327 1.335.955.955 0 01-.486.133zm69.656-.75a.96.96 0 01-.451-1.808 29.527 29.527 0 004.156-2.689.96.96 0 011.171 1.521 31.387 31.387 0 01-4.426 2.864.957.957 0 01-.45.116v-.004zm-24.488-.273a.951.951 0 01-.458-.117 27.816 27.816 0 01-4.4-2.945.96.96 0 011.22-1.478 25.954 25.954 0 004.097 2.742.965.965 0 01.473 1.081.96.96 0 01-.932.723v-.006zm32.57-5.932a.957.957 0 01-.881-.582.959.959 0 01.186-1.04 34.37 34.37 0 003.151-3.848.959.959 0 111.567 1.106 36.099 36.099 0 01-3.327 4.064.953.953 0 01-.696.303v-.003zm-40.372-.577a.958.958 0 01-.764-.382 18.756 18.756 0 01-2.619-4.694.963.963 0 01.566-1.216.962.962 0 011.228.537 16.797 16.797 0 002.354 4.211.963.963 0 01-.765 1.541v.003zm30.348-1.422a.957.957 0 01-.926-1.214c.44-1.577.704-3.197.787-4.832a.957.957 0 011.004-.928.972.972 0 01.367.091.972.972 0 01.494.552c.042.12.06.248.052.375a24.236 24.236 0 01-.853 5.249.96.96 0 01-.926.71l.001-.003zm15.914-6.332a.959.959 0 01-.851-1.401 38.144 38.144 0 001.991-4.574.963.963 0 01.859-.651.956.956 0 01.699.252.961.961 0 01.248 1.049 40.386 40.386 0 01-2.093 4.806.96.96 0 01-.853.522v-.003zm-49.785-1.686a.966.966 0 01-.958-.914 20.238 20.238 0 01-.021-.888c.004-1.501.18-2.996.526-4.456a.95.95 0 01.427-.597.965.965 0 011.066.035.965.965 0 01.375.998 17.728 17.728 0 00-.475 4.02c0 .265.006.53.019.795a.96.96 0 01-.912 1.006l-.047.001zm34.284-2.115a.958.958 0 01-.94-.771 25.984 25.984 0 00-1.436-4.719.961.961 0 011.259-1.246c.234.097.42.284.517.519a27.944 27.944 0 011.542 5.069.962.962 0 01-.942 1.151v-.003zm-32.045-7.757a.953.953 0 01-.958-.922.963.963 0 01.103-.474 23.316 23.316 0 012.944-4.445.962.962 0 011.69.539.963.963 0 01-.223.701 21.195 21.195 0 00-2.7 4.076.96.96 0 01-.856.525zm28.204-1.677a.963.963 0 01-.809-.443 23.663 23.663 0 00-3.046-3.849.965.965 0 01.02-1.348.957.957 0 011.346-.001 25.51 25.51 0 013.296 4.164.967.967 0 01.034.978.964.964 0 01-.841.499zm-21.633-6.05a.963.963 0 01-.915-.669.96.96 0 01.361-1.076c1.549-1.093 3.178-1.9 4.843-2.396a.957.957 0 011.194.645.964.964 0 01-.645 1.194 14.818 14.818 0 00-4.286 2.126.951.951 0 01-.552.176zm14.43-1.083a.96.96 0 01-.468-.123c-1.452-.815-2.955-1.323-4.463-1.51a.958.958 0 01-.81-1.069.962.962 0 011.047-.837c1.757.218 3.492.805 5.163 1.741a.964.964 0 01.459 1.081.964.964 0 01-.928.717z" fill="#52D1BD"/><path opacity=".1" d="M256.783 134.548c7.3-7.305 7.3-19.149 0-26.454s-19.136-7.305-26.436 0c-7.3 7.305-7.3 19.149 0 26.454s19.136 7.305 26.436 0z" fill="#232323"/><path d="M247.539 137.793c10.324 0 18.693-8.375 18.693-18.706s-8.369-18.706-18.693-18.706c-10.324 0-18.693 8.375-18.693 18.706s8.369 18.706 18.693 18.706z" fill="#F4B545"/><path d="M250.867 113.667l.443-1.469 3.548.253-2.728 9.498c-.17.601-.262 1-.275 1.197a.707.707 0 00.12.495.48.48 0 00.357.201c.485.035 1.132-.236 1.942-.814.811-.578 1.54-1.392 2.187-2.44a7.908 7.908 0 00.712-6.594 7.086 7.086 0 00-1.592-2.599c-.721-.754-1.634-1.369-2.739-1.844-1.104-.476-2.374-.765-3.808-.867-1.461-.102-2.814-.007-4.06.286a10.178 10.178 0 00-3.328 1.412 9.225 9.225 0 00-2.5 2.478 11.509 11.509 0 00-1.467 2.951 13.611 13.611 0 00-.671 3.372c-.11 1.542.096 2.974.619 4.296a8.599 8.599 0 002.445 3.404c1.107.949 2.477 1.664 4.109 2.145 1.633.48 3.5.688 5.603.622 1.671-.079 3.102-.356 4.293-.83a8.317 8.317 0 003.09-2.132l2.863.204a9.547 9.547 0 01-2.004 2.439 10.354 10.354 0 01-2.763 1.716 13.735 13.735 0 01-3.457.937c-1.36.183-2.734.221-4.102.113-2.203-.157-4.167-.587-5.891-1.292-1.724-.704-3.151-1.644-4.279-2.819a10.622 10.622 0 01-2.457-4.095c-.509-1.554-.7-3.246-.571-5.075.135-1.909.579-3.671 1.334-5.285a12.574 12.574 0 013.056-4.129c1.283-1.138 2.811-1.991 4.585-2.559 1.773-.568 3.7-.777 5.779-.629 1.702.121 3.246.481 4.631 1.08 1.385.599 2.55 1.4 3.496 2.405a9.364 9.364 0 012.09 3.479c.442 1.315.609 2.744.499 4.287a10.208 10.208 0 01-2.965 6.46 9.027 9.027 0 01-2.984 1.977 7.855 7.855 0 01-3.564.551c-.727-.051-1.283-.215-1.668-.491-.386-.276-.627-.688-.722-1.234-.835.713-1.766 1.136-2.793 1.268a5.031 5.031 0 01-2.923-.492c-.923-.459-1.644-1.17-2.165-2.135-.52-.964-.733-2.124-.638-3.478a10.194 10.194 0 011.203-4.092 8.596 8.596 0 012.819-3.165 6.011 6.011 0 013.876-1.035c1.61.115 2.749.804 3.415 2.068zm-7.847 6.444c-.076 1.075.089 1.916.496 2.523a2.145 2.145 0 001.7.986c.842.06 1.607-.224 2.296-.85.688-.627 1.235-1.442 1.639-2.447a9.703 9.703 0 00.709-2.943 4.572 4.572 0 00-.076-1.3 3.063 3.063 0 00-.426-1.038 2.182 2.182 0 00-.747-.708 2.414 2.414 0 00-1.039-.297c-.789-.056-1.521.201-2.196.77-.675.569-1.217 1.333-1.628 2.294a9.25 9.25 0 00-.728 3.01z" fill="#fff"/><path d="M192.595 15.385l2.02-1.063a.623.623 0 01.906.659l-.382 2.251a.627.627 0 00.179.552l1.634 1.595a.623.623 0 01-.345 1.065l-2.259.328a.627.627 0 00-.47.342l-1.01 2.048a.627.627 0 01-.559.348.625.625 0 01-.56-.348l-1.01-2.048a.626.626 0 00-.47-.342l-2.259-.328a.625.625 0 01-.345-1.065l1.634-1.595a.626.626 0 00.18-.552l-.386-2.251a.62.62 0 01.248-.611.625.625 0 01.657-.048l2.02 1.063a.62.62 0 00.577 0zM28.268 177.983a5.373 5.373 0 01-3.798-9.175 5.365 5.365 0 015.853-1.165 5.371 5.371 0 013.316 4.966 5.375 5.375 0 01-5.371 5.374zm0-9.271a3.898 3.898 0 103.24 6.066 3.9 3.9 0 00-3.24-6.066z" fill="#26ABDD"/><path d="M30.203 174.544a2.739 2.739 0 000-3.871 2.734 2.734 0 00-3.869 0 2.739 2.739 0 000 3.871 2.734 2.734 0 003.869 0zm109.109 30.173a2.47 2.47 0 002.469-2.47 2.47 2.47 0 10-2.469 2.47zM98.334 8.493a2.47 2.47 0 002.468-2.47 2.47 2.47 0 10-2.468 2.47z" fill="#26ABDD"/></svg>